<svg width="114" height="42" viewBox="0 0 114 42" fill="none" xmlns="http://www.w3.org/2000/svg">
<path d="M0.42 1.73V41H10.65V24.83H22.86V16.8H10.65V10.09H23.685V1.73H0.42ZM26.8995 1.73V41H50.6595V32.64H37.1295V24.83H49.3395V16.8H37.1295V10.09H50.1645V1.73H26.8995ZM54.3995 1.73V41H63.9695V16.745H64.0795L70.8995 41H82.1195V1.73H72.5495V25.93H72.4395L65.8395 1.73H54.3995ZM100.148 19.66V26.59H103.778C103.778 28.2767 103.687 29.67 103.503 30.77C103.357 31.8333 103.137 32.6767 102.843 33.3C102.55 33.8867 102.183 34.29 101.743 34.51C101.34 34.73 100.863 34.84 100.313 34.84C99.5433 34.84 98.92 34.6383 98.4433 34.235C98.0033 33.8317 97.655 33.1167 97.3983 32.09C97.1783 31.0633 97.0317 29.6883 96.9583 27.965C96.885 26.205 96.8483 24.005 96.8483 21.365C96.8483 18.725 96.885 16.5433 96.9583 14.82C97.0317 13.06 97.1783 11.6667 97.3983 10.64C97.655 9.61333 98.0217 8.89833 98.4983 8.495C99.0117 8.09166 99.69 7.89 100.533 7.89C101.743 7.89 102.532 8.45833 102.898 9.595C103.265 10.5483 103.448 12.07 103.448 14.16H113.348C113.348 11.7767 113.037 9.76 112.413 8.11C111.79 6.42333 110.928 5.04833 109.828 3.985C108.728 2.92167 107.408 2.15167 105.868 1.675C104.365 1.19833 102.715 0.959998 100.918 0.959998C97.9117 0.959998 95.455 1.41833 93.5483 2.335C91.6417 3.215 90.1383 4.51667 89.0383 6.24C87.975 7.96333 87.2417 10.09 86.8383 12.62C86.4717 15.15 86.2883 18.065 86.2883 21.365C86.2883 24.6283 86.38 27.525 86.5633 30.055C86.7833 32.585 87.2783 34.7117 88.0483 36.435C88.8183 38.1583 89.955 39.46 91.4583 40.34C92.9617 41.1833 95.015 41.605 97.6183 41.605C98.4983 41.605 99.36 41.55 100.203 41.44C101.083 41.33 101.89 41.1467 102.623 40.89C103.393 40.5967 104.072 40.175 104.658 39.625C105.282 39.075 105.758 38.3783 106.088 37.535H106.198L106.418 41H113.348V19.66H100.148Z" fill="black"/>
</svg>
